<svg xmlns="http://www.w3.org/2000/svg" version="1.1" viewBox="-5.0 -10.0 110.0 135.0">
 <path d="m62.809 41.258h-8.3203c-0.56641 0-1.0273-0.46094-1.0273-1.0273 0-0.56641 0.46094-1.0273 1.0273-1.0273h8.3203c0.83203 0 1.5078-0.67578 1.5078-1.5078 0-0.83203-0.67578-1.5078-1.5078-1.5078h-8.3203c-0.43359 0-0.81641-0.26953-0.96484-0.67188-0.14844-0.40625-0.027344-0.85938 0.29687-1.1367 4.3086-3.668 4.7969-8.25 4.0781-10.434-0.26953-0.80859-0.70703-1.3281-1.1445-1.3594-0.60938-0.039063-1.7344 0.76562-2.9102 3.1758-2.1133 4.3281-6.0391 9.8906-12.727 11.828-0.54688 0.15625-1.1133-0.15625-1.2734-0.70312-0.15625-0.54688 0.15625-1.1133 0.70312-1.2734 5.9648-1.7266 9.5156-6.8008 11.449-10.754 1.8164-3.7227 3.668-4.4062 4.8945-4.3242 1.3281 0.089844 2.4062 1.0977 2.957 2.7656 0.91797 2.7852 0.30859 7.1016-2.8789 10.832h5.8359c1.9648 0 3.5625 1.5977 3.5625 3.5625 0 1.9648-1.5977 3.5625-3.5625 3.5625z" fill-rule="evenodd"/>
 <path d="m63.824 46.324h-9.3359c-0.56641 0-1.0273-0.46094-1.0273-1.0273s0.46094-1.0273 1.0273-1.0273h9.3359c0.82812 0 1.5039-0.67578 1.5039-1.5078s-0.67578-1.5078-1.5039-1.5078h-9.3359c-0.56641 0-1.0273-0.46094-1.0273-1.0273 0-0.56641 0.46094-1.0273 1.0273-1.0273h9.3359c1.9648 0 3.5625 1.5977 3.5625 3.5625 0 1.9648-1.5977 3.5625-3.5625 3.5625z" fill-rule="evenodd"/>
 <path d="m62.332 51.395h-7.8438c-0.56641 0-1.0273-0.46094-1.0273-1.0273 0-0.56641 0.46094-1.0273 1.0273-1.0273h7.8438c0.83203 0 1.5078-0.67578 1.5078-1.5078s-0.67578-1.5078-1.5078-1.5078h-7.8438c-0.56641 0-1.0273-0.46094-1.0273-1.0273s0.46094-1.0273 1.0273-1.0273h7.8438c1.9648 0 3.5625 1.5977 3.5625 3.5625 0 1.9648-1.5977 3.5625-3.5625 3.5625z" fill-rule="evenodd"/>
 <path d="m47.461 54.418zm13.559 2.0469h-13.621c-0.76563 0-1.3438-0.48047-1.9609-0.99219-0.91016-0.75781-2.1641-1.7969-4.6367-1.8789-0.56641-0.019531-1.0117-0.49219-0.99219-1.0625 0.019531-0.56641 0.49609-1.0078 1.0625-0.99219 3.1797 0.10547 4.8711 1.5117 5.8828 2.3516 0.23438 0.19531 0.55078 0.45703 0.6875 0.51562h13.578c0.83203 0 1.5078-0.67578 1.5078-1.5078 0-0.83203-0.67578-1.5078-1.5078-1.5078h-6.5312c-0.56641 0-1.0273-0.46094-1.0273-1.0273 0-0.56641 0.46094-1.0273 1.0273-1.0273h6.5312c1.9648 0 3.5625 1.5977 3.5625 3.5625 0 1.9648-1.5977 3.5625-3.5625 3.5625z" fill-rule="evenodd"/>
 <path d="m34.672 54.051h5.1367v-19.059h-5.1367zm6.1641 2.0547h-7.1914c-0.56641 0-1.0273-0.46094-1.0273-1.0273v-21.113c0-0.56641 0.46094-1.0273 1.0273-1.0273h7.1914c0.56641 0 1.0273 0.46094 1.0273 1.0273v21.113c0 0.56641-0.46094 1.0273-1.0273 1.0273z" fill-rule="evenodd"/>
 <path d="m44.629 73.133c0.19922 0 0.39453 0.011719 0.59375 0.042969 0.96094 0.14062 1.8086 0.65234 2.625 1.1484 0.77734 0.46875 1.5117 0.91406 2.1523 0.91406s1.375-0.44531 2.1523-0.91406c0.81641-0.49219 1.6641-1.0039 2.625-1.1484 0.98047-0.14453 1.9375 0.10938 2.8672 0.35547 0.83594 0.22266 1.6289 0.43359 2.1836 0.26562s1.0898-0.77734 1.6562-1.4258c0.62109-0.70703 1.2617-1.4414 2.1367-1.8477 0.88281-0.41016 1.8594-0.42578 2.8047-0.44141 0.84375-0.011719 1.6367-0.027343 2.1055-0.32812 0.46484-0.30469 0.79688-1.0234 1.1484-1.7852 0.39453-0.85156 0.80078-1.7344 1.5273-2.3672 0.73047-0.63281 1.6602-0.91406 2.5586-1.1836 0.80078-0.24219 1.5586-0.46875 1.918-0.88281 0.35938-0.41406 0.48047-1.1953 0.60938-2.0234 0.14453-0.92969 0.29297-1.8906 0.82031-2.7031 0.52734-0.80859 1.3398-1.3359 2.1289-1.8438 0.71094-0.46094 1.3828-0.89453 1.625-1.4062 0.23828-0.51172 0.14062-1.3086 0.035156-2.1523-0.11328-0.94531-0.23438-1.918 0.046875-2.8555 0.27734-0.92578 0.90625-1.6758 1.5195-2.3984 0.56641-0.67188 1.1016-1.3086 1.1914-1.9062s-0.23438-1.3711-0.57812-2.1914c-0.375-0.89844-0.76172-1.832-0.76172-2.8398 0-1.0078 0.38672-1.9375 0.76172-2.8398 0.34375-0.82031 0.66406-1.5938 0.57812-2.1914-0.085937-0.59766-0.62109-1.2344-1.1914-1.9062-0.60938-0.72266-1.2383-1.4727-1.5195-2.3984-0.28125-0.9375-0.16406-1.9141-0.046875-2.8555 0.10547-0.84375 0.20312-1.6445-0.035156-2.1523-0.23828-0.51172-0.91016-0.94531-1.625-1.4062-0.78906-0.51172-1.6055-1.0391-2.1289-1.8438-0.52734-0.8125-0.67578-1.7734-0.82031-2.7031-0.12891-0.82812-0.25-1.6094-0.60938-2.0234-0.36328-0.41406-1.1172-0.64062-1.918-0.88281-0.90234-0.26953-1.832-0.55078-2.5586-1.1836-0.72656-0.63281-1.1328-1.5156-1.5273-2.3672-0.35156-0.76172-0.68359-1.4844-1.1484-1.7852s-1.2578-0.31641-2.1016-0.32812c-0.94531-0.015625-1.9219-0.03125-2.8047-0.44141-0.875-0.40625-1.5156-1.1406-2.1367-1.8477-0.56641-0.64844-1.1016-1.2578-1.6562-1.4258-0.55469-0.16797-1.3438 0.042969-2.1836 0.26563-0.92969 0.24609-1.8906 0.5-2.8672 0.35547-0.96094-0.14453-1.8086-0.65234-2.625-1.1484-0.77734-0.46875-1.5117-0.91406-2.1523-0.91406s-1.375 0.44531-2.1523 0.91406c-0.81641 0.49219-1.6641 1.0039-2.625 1.1484-0.98047 0.14453-1.9375-0.10938-2.8672-0.35547-0.83594-0.22266-1.6289-0.42969-2.1836-0.26563-0.55469 0.16797-1.0898 0.77734-1.6562 1.4258-0.62109 0.70703-1.2617 1.4414-2.1367 1.8477-0.88281 0.41016-1.8594 0.42578-2.8047 0.44141-0.84375 0.011719-1.6367 0.027344-2.1016 0.32812-0.46484 0.30078-0.79687 1.0234-1.1484 1.7852-0.39062 0.85156-0.80078 1.7344-1.5273 2.3672-0.73047 0.63281-1.6602 0.91406-2.5586 1.1836-0.80078 0.24219-1.5586 0.46875-1.918 0.88281-0.35938 0.41406-0.48047 1.1953-0.60938 2.0234-0.14453 0.92969-0.29297 1.8906-0.82031 2.7031-0.52734 0.80859-1.3398 1.3359-2.1289 1.8438-0.71094 0.46094-1.3828 0.89453-1.625 1.4062-0.23828 0.51172-0.14062 1.3086-0.035156 2.1523 0.11328 0.94531 0.23438 1.918-0.046875 2.8555-0.27734 0.92578-0.90625 1.6758-1.5195 2.3984-0.56641 0.67188-1.1016 1.3086-1.1914 1.9062s0.23438 1.3711 0.57812 2.1914c0.375 0.89844 0.76172 1.832 0.76172 2.8398 0 1.0078-0.38672 1.9375-0.76172 2.8398-0.34375 0.82031-0.66406 1.5938-0.57812 2.1914 0.085938 0.59766 0.62109 1.2344 1.1914 1.9062 0.60938 0.72266 1.2383 1.4727 1.5195 2.3984 0.28125 0.9375 0.16406 1.9141 0.046875 2.8555-0.10156 0.84375-0.20312 1.6445 0.035156 2.1523 0.23828 0.51172 0.91016 0.94531 1.625 1.4062 0.78906 0.51172 1.6055 1.0391 2.1289 1.8438 0.52734 0.8125 0.67578 1.7734 0.82031 2.7031 0.12891 0.82812 0.25 1.6094 0.60938 2.0234 0.36328 0.41406 1.1172 0.64062 1.918 0.88281 0.90234 0.26953 1.832 0.55078 2.5586 1.1836 0.72656 0.63281 1.1328 1.5156 1.5273 2.3672 0.35156 0.76172 0.68359 1.4844 1.1484 1.7852 0.46484 0.30078 1.2578 0.31641 2.1016 0.32812 0.94531 0.015625 1.9219 0.03125 2.8047 0.44141 0.875 0.40625 1.5156 1.1406 2.1367 1.8477 0.56641 0.64844 1.1016 1.2578 1.6562 1.4258 0.55469 0.16797 1.3438-0.042969 2.1836-0.26562 0.74219-0.19531 1.5-0.39844 2.2734-0.39844zm5.3711 4.1602c-1.2148 0-2.2773-0.64453-3.2188-1.2109-0.67188-0.40625-1.3086-0.78906-1.8633-0.87109-0.5625-0.082032-1.2773 0.10547-2.0391 0.30859-1.0273 0.27344-2.1914 0.58203-3.3008 0.24609-1.1172-0.33594-1.9141-1.2422-2.6094-2.0391-0.50391-0.57422-0.97656-1.1133-1.4609-1.3398-0.48437-0.22656-1.207-0.23828-1.9688-0.25-1.043-0.015625-2.2266-0.035157-3.1914-0.66016-0.96094-0.625-1.457-1.7031-1.8945-2.6484-0.31641-0.6875-0.61328-1.332-1.0078-1.6758-0.39453-0.34375-1.0781-0.54688-1.8008-0.76562-0.99609-0.30078-2.1289-0.64062-2.8789-1.5039-0.75-0.86328-0.92969-2.0312-1.0898-3.0586-0.11719-0.75-0.22656-1.457-0.51562-1.8984-0.28516-0.44141-0.88672-0.82812-1.5234-1.2383-0.88281-0.57031-1.8828-1.2148-2.3711-2.2656-0.48438-1.043-0.33984-2.2266-0.21484-3.2695 0.09375-0.76562 0.18359-1.4922 0.023438-2.0156-0.15625-0.51953-0.625-1.0781-1.1211-1.668-0.69141-0.82422-1.4766-1.7539-1.6523-2.9297-0.17188-1.1602 0.27734-2.2383 0.71484-3.2852 0.3125-0.74609 0.60547-1.4492 0.60547-2.0469 0-0.59766-0.29297-1.3008-0.60547-2.0469-0.43359-1.043-0.88672-2.1211-0.71484-3.2812 0.17578-1.1758 0.96094-2.1094 1.6523-2.9297 0.49609-0.58984 0.96484-1.1484 1.1211-1.668 0.16016-0.52344 0.070312-1.25-0.023438-2.0156-0.125-1.043-0.26953-2.2266 0.21484-3.2695 0.48828-1.0469 1.4883-1.6953 2.3711-2.2656 0.63672-0.41016 1.2383-0.80078 1.5234-1.2383 0.28906-0.44141 0.39844-1.1484 0.51562-1.8984 0.16016-1.0312 0.33984-2.1953 1.0898-3.0586 0.75-0.86328 1.8828-1.2031 2.8789-1.5039 0.72266-0.21875 1.4062-0.42188 1.8008-0.76562 0.39453-0.34375 0.69141-0.99219 1.0078-1.6758 0.43359-0.94922 0.92969-2.0234 1.8945-2.6484 0.96094-0.625 2.1445-0.64453 3.1914-0.66016 0.76563-0.011719 1.4844-0.023438 1.9688-0.25 0.48047-0.22266 0.95703-0.76562 1.4609-1.3398 0.69922-0.79688 1.4922-1.6992 2.6094-2.0391 1.1133-0.33594 2.2734-0.027344 3.3008 0.24609 0.76172 0.20312 1.4805 0.39062 2.0391 0.30859 0.55469-0.082031 1.1914-0.46484 1.8633-0.87109 0.9375-0.56641 2.0039-1.2109 3.2188-1.2109s2.2773 0.64453 3.2188 1.2109c0.67188 0.40625 1.3086 0.78906 1.8633 0.87109 0.5625 0.082031 1.2773-0.10547 2.0391-0.30859 1.0273-0.27344 2.1914-0.58203 3.3008-0.24609 1.1172 0.33594 1.9141 1.2422 2.6094 2.0391 0.50391 0.57422 0.97656 1.1133 1.4609 1.3398 0.48437 0.22656 1.207 0.23828 1.9688 0.25 1.043 0.015625 2.2266 0.035156 3.1914 0.66016 0.96094 0.625 1.457 1.7031 1.8945 2.6484 0.31641 0.6875 0.61328 1.332 1.0078 1.6758 0.39453 0.34375 1.0781 0.54688 1.8008 0.76562 0.99609 0.30078 2.1289 0.64062 2.8789 1.5039 0.75 0.86328 0.92969 2.0312 1.0898 3.0586 0.11719 0.75 0.22656 1.457 0.51562 1.8984 0.28516 0.44141 0.88672 0.82812 1.5234 1.2383 0.88281 0.57031 1.8828 1.2148 2.3711 2.2656 0.48438 1.043 0.33984 2.2266 0.21484 3.2695-0.09375 0.76562-0.18359 1.4922-0.023438 2.0156 0.15625 0.51953 0.625 1.0781 1.1211 1.668 0.69141 0.82422 1.4766 1.7539 1.6523 2.9297 0.17188 1.1602-0.27734 2.2383-0.71484 3.2852-0.30859 0.74609-0.60547 1.4492-0.60547 2.0469 0 0.59766 0.29297 1.3008 0.60547 2.0469 0.43359 1.043 0.88672 2.1211 0.71484 3.2852-0.17578 1.1758-0.96094 2.1094-1.6523 2.9297-0.49609 0.58984-0.96484 1.1484-1.1211 1.668-0.15625 0.52344-0.070312 1.25 0.023438 2.0156 0.125 1.043 0.26953 2.2266-0.21484 3.2695-0.48828 1.0508-1.4883 1.6953-2.3711 2.2656-0.63672 0.41016-1.2383 0.80078-1.5234 1.2383-0.28906 0.44141-0.39844 1.1484-0.51562 1.8984-0.16016 1.0312-0.33984 2.1953-1.0898 3.0586s-1.8828 1.2031-2.8789 1.5039c-0.72266 0.21875-1.4062 0.42188-1.8008 0.76562-0.39453 0.34375-0.69141 0.99219-1.0078 1.6758-0.43359 0.94922-0.92969 2.0234-1.8945 2.6484-0.96094 0.625-2.1445 0.64453-3.1914 0.66016-0.76172 0.011719-1.4844 0.023437-1.9688 0.25-0.48047 0.22266-0.95703 0.76562-1.4609 1.3398-0.69922 0.79688-1.4883 1.6992-2.6094 2.0391-1.1133 0.33594-2.2734 0.027344-3.3008-0.24609-0.76172-0.20313-1.4766-0.39063-2.0391-0.30859-0.55469 0.082031-1.1914 0.46484-1.8633 0.87109-0.9375 0.56641-2.0039 1.2109-3.2188 1.2109z" fill-rule="evenodd"/>
 <path d="m50 16.211c-13.781 0-24.996 11.215-24.996 24.996s11.215 24.996 24.996 24.996 24.996-11.215 24.996-24.996-11.215-24.996-24.996-24.996zm0 52.047c-14.914 0-27.051-12.137-27.051-27.051 0-14.918 12.137-27.051 27.051-27.051 14.918 0 27.051 12.137 27.051 27.051 0 14.918-12.137 27.051-27.051 27.051z" fill-rule="evenodd"/>
 <path d="m25.301 66.281v25.707l8.2383-5.1953c0.35156-0.22266 0.80078-0.21094 1.1406 0.027343l7.1523 5.0469v-16.094c-0.73828 0.14844-1.5078 0.21484-2.2539-0.007813-1.1172-0.33594-1.9141-1.2422-2.6094-2.0391-0.50391-0.57422-0.97656-1.1133-1.4609-1.3398-0.48437-0.22656-1.207-0.23828-1.9688-0.25-1.043-0.015625-2.2266-0.035157-3.1914-0.66016-0.96094-0.625-1.457-1.7031-1.8945-2.6484-0.31641-0.6875-0.61328-1.332-1.0078-1.6758-0.39453-0.34375-1.0781-0.54688-1.8008-0.76562-0.11328-0.035157-0.23047-0.070313-0.34375-0.10547zm17.559 28.598c-0.20703 0-0.41406-0.0625-0.59375-0.1875l-8.2109-5.793-9.2344 5.8203c-0.31641 0.19922-0.71875 0.21094-1.043 0.03125-0.32812-0.17969-0.53125-0.52734-0.53125-0.89844v-29.074c0-0.36328 0.19141-0.69922 0.50391-0.88281 0.3125-0.18359 0.69922-0.19141 1.0195-0.015625 0.39844 0.21875 0.91797 0.375 1.4688 0.53906 0.90234 0.26953 1.832 0.55078 2.5586 1.1836 0.72656 0.63281 1.1328 1.5156 1.5273 2.3672 0.35156 0.76172 0.68359 1.4844 1.1484 1.7852 0.46484 0.30078 1.2578 0.31641 2.1016 0.32812 0.94531 0.015625 1.9219 0.03125 2.8047 0.44141 0.875 0.40625 1.5156 1.1406 2.1367 1.8477 0.56641 0.64844 1.1016 1.2578 1.6562 1.4258s1.3438-0.042969 2.1836-0.26562l0.25-0.066406c0.30859-0.082032 0.63672-0.015625 0.88672 0.17969 0.25391 0.19531 0.39844 0.49609 0.39844 0.8125v19.391c0 0.38281-0.21484 0.73438-0.55469 0.91016-0.14844 0.078126-0.30859 0.11719-0.47266 0.11719z" fill-rule="evenodd"/>
 <path d="m58.168 75.773v16.215l8.2383-5.1953c0.34766-0.22266 0.80078-0.21094 1.1406 0.027343l7.1523 5.0469v-25.586c-0.11328 0.035156-0.23047 0.070312-0.34375 0.10547-0.72266 0.21875-1.4062 0.42188-1.8008 0.76562-0.39453 0.34375-0.69141 0.99219-1.0078 1.6758-0.43359 0.94922-0.92969 2.0234-1.8945 2.6484-0.96094 0.625-2.1445 0.64453-3.1914 0.66016-0.76172 0.011719-1.4844 0.023437-1.9688 0.25-0.48047 0.22266-0.95703 0.76562-1.4609 1.3398-0.69922 0.79688-1.4883 1.6992-2.6094 2.0391-0.74609 0.22656-1.5195 0.16016-2.2539 0.007813zm17.559 19.105c-0.20703 0-0.41406-0.0625-0.59375-0.1875l-8.2109-5.793-9.2344 5.8203c-0.31641 0.19922-0.71875 0.21094-1.0469 0.03125s-0.53125-0.52734-0.53125-0.89844v-19.391c0-0.31641 0.14453-0.61719 0.39844-0.8125 0.25-0.19531 0.57813-0.26172 0.88672-0.17969l0.24609 0.066406c0.83984 0.22266 1.6289 0.43359 2.1836 0.26562 0.55469-0.16797 1.0898-0.77734 1.6562-1.4258 0.62109-0.70703 1.2617-1.4414 2.1367-1.8477 0.88281-0.41016 1.8594-0.42578 2.8047-0.44141 0.84375-0.011719 1.6367-0.027344 2.1055-0.32813 0.46484-0.30469 0.79688-1.0234 1.1484-1.7852 0.39453-0.85156 0.80078-1.7344 1.5273-2.3672 0.73047-0.63281 1.6602-0.91406 2.5586-1.1836 0.55078-0.16406 1.0703-0.32031 1.4688-0.53906 0.32031-0.17578 0.70312-0.16797 1.0195 0.015626 0.3125 0.18359 0.50391 0.51953 0.50391 0.88281v29.074c0 0.38281-0.21484 0.73438-0.55469 0.91016-0.14844 0.078125-0.30859 0.11719-0.47266 0.11719z" fill-rule="evenodd"/>
 <path d="m37.238 41.715c-0.56641 0-1.0273-0.46094-1.0273-1.0273v-2.8242c0-0.56641 0.46094-1.0273 1.0273-1.0273 0.56641 0 1.0273 0.46094 1.0273 1.0273v2.8242c0 0.56641-0.46094 1.0273-1.0273 1.0273z" fill-rule="evenodd"/>
</svg>