<svg xmlns="http://www.w3.org/2000/svg" version="1.1" viewBox="-5.0 -10.0 110.0 135.0">
 <path d="m34.809 29.664c-9.5391 0-17.301 7.7617-17.301 17.301 0 8.3477 5.9453 15.332 13.824 16.945v0.21094h-3.3477c-1.7422 0-3.2461 0.625-4.4688 1.8516l-10.473 10.469c-0.44141 0.44141-0.44141 1.1562 0 1.5977 0.21875 0.22266 0.50781 0.33203 0.79688 0.33203 0.28906 0 0.57812-0.10938 0.79688-0.32812l10.477-10.473c0.79688-0.80078 1.7344-1.1914 2.8711-1.1914h3.3477v2.8281c0 0.625 0.50391 1.1289 1.1289 1.1289h8.5547c0.21484 0 0.39844 0.17969 0.39844 0.39453v1.0781c0 0.21875-0.17969 0.39844-0.39844 0.39844h-3.5117c-0.625 0-1.1289 0.50391-1.1289 1.1289s0.50391 1.1289 1.1289 1.1289h3.5117c0.21484 0 0.39844 0.17969 0.39844 0.39453v1.0781c0 0.21484-0.18359 0.39453-0.39844 0.39453h-3.5117c-0.625 0-1.1289 0.50391-1.1289 1.1289s0.50391 1.1289 1.1289 1.1289h2.9766c0.21875 0 0.39844 0.17969 0.39844 0.39844v1.0781c0 0.21484-0.18359 0.39453-0.39844 0.39453h-2.9766c-0.625 0-1.1289 0.50391-1.1289 1.1289s0.50391 1.1289 1.1289 1.1289h1.9805c0.21484 0 0.39453 0.17969 0.39453 0.39453v1.0781c0 0.21875-0.17578 0.39453-0.39453 0.39453l-13.078 0.003906c-0.30078 0-0.58984 0.12109-0.80469 0.33594l-3.1172 3.1562c-0.4375 0.44531-0.43359 1.1562 0.007813 1.5977 0.21875 0.21875 0.50781 0.32422 0.79297 0.32422 0.28906 0 0.58203-0.11328 0.80469-0.33594l2.7852-2.8203 4.457-0.003906v0.81641c0 1.2891 1.0508 2.3398 2.3438 2.3398h2.2578c1.2891 0 2.3398-1.0508 2.3398-2.3398v-0.81641h1.207c1.4609 0 2.6523-1.1914 2.6523-2.6523v-1.0781c0-0.30469-0.054687-0.59375-0.14844-0.86328 0.69141-0.48047 1.1484-1.2773 1.1484-2.1797v-1.0781c0-0.41406-0.097656-0.80469-0.26953-1.1523 0.49219-0.48047 0.80078-1.1523 0.80078-1.8945v-1.0781c0-0.56641-0.17969-1.0938-0.48437-1.5234 0.30469-0.43359 0.48437-0.95703 0.48437-1.5273v-1.0781c0-1.4609-1.1914-2.6523-2.6562-2.6523h-2.7383v-4.168c7.8789-1.6094 13.824-8.5977 13.824-16.945 0-9.5391-7.7578-17.301-17.297-17.301zm1.2109 57.996c0 0.042969-0.039062 0.082032-0.082031 0.082032h-2.2578c-0.046876 0-0.085938-0.039063-0.085938-0.082032v-0.81641h2.4297v0.81641zm0-19.582h-2.4297v-3.8594c0.40234 0.027344 0.80859 0.042969 1.2148 0.042969 0.41016 0 0.8125-0.015625 1.2109-0.042969v3.8594zm-1.2109-6.0742c-8.293 0-15.043-6.7461-15.043-15.035s6.7461-15.043 15.043-15.043c8.293 0 15.035 6.7461 15.035 15.043 0 8.293-6.7461 15.035-15.035 15.035zm52.148-5.2266-10.469-10.469c-1.2305-1.2305-2.7344-1.8516-4.4727-1.8516h-3.3477v-0.21094c7.8789-1.6094 13.824-8.5977 13.824-16.945 0-9.5391-7.7578-17.301-17.297-17.301-9.5352 0-17.301 7.7617-17.301 17.301 0 8.3477 5.9453 15.332 13.824 16.945v4.168h-2.7383c-1.4609 0-2.6523 1.1875-2.6523 2.6523v1.0781c0 0.56641 0.17969 1.0938 0.48438 1.5273-0.30469 0.43359-0.48438 0.95703-0.48438 1.5234v1.0781c0 0.74219 0.30859 1.4141 0.80078 1.8945-0.16797 0.34766-0.26562 0.73828-0.26562 1.1523v1.0781c0 0.90234 0.45312 1.6992 1.1445 2.1797-0.09375 0.27344-0.14844 0.5625-0.14844 0.86719v1.0781c0 1.4648 1.1875 2.6562 2.6523 2.6562h1.207v0.8125c0 1.2891 1.0508 2.3398 2.3438 2.3398h2.2578c1.2891 0 2.3398-1.0508 2.3398-2.3398v-0.8125h4.4609l2.7812 2.8203c0.22266 0.22266 0.51172 0.33594 0.80469 0.33594 0.28516 0 0.57422-0.10938 0.79297-0.32422 0.44531-0.4375 0.44922-1.1523 0.011719-1.5977l-3.1133-3.1562c-0.21094-0.21484-0.50391-0.33594-0.80469-0.33594h-13.086c-0.21484 0-0.39453-0.18359-0.39453-0.39844v-1.0781c0-0.21484 0.17969-0.39453 0.39453-0.39453h1.9844c0.625 0 1.1289-0.50391 1.1289-1.1289s-0.50391-1.1289-1.1289-1.1289h-2.9805c-0.21484 0-0.39453-0.17969-0.39453-0.39453v-1.0781c0-0.21484 0.17969-0.39844 0.39453-0.39844h2.9805c0.625 0 1.1289-0.50391 1.1289-1.1289s-0.50391-1.1289-1.1289-1.1289h-3.5156c-0.21484 0-0.39453-0.17969-0.39453-0.39453v-1.0781c0-0.21484 0.17969-0.39453 0.39453-0.39453h3.5156c0.625 0 1.1289-0.50391 1.1289-1.1289s-0.50391-1.1289-1.1289-1.1289h-3.5156c-0.21484 0-0.39453-0.18359-0.39453-0.39844v-1.0781c0-0.21484 0.17969-0.39453 0.39453-0.39453h8.5547c0.625 0 1.1289-0.50391 1.1289-1.1289v-2.8281h3.3477c1.1328 0 2.0742 0.39062 2.8789 1.1914l10.469 10.469c0.21875 0.21875 0.50781 0.33203 0.79688 0.33203 0.28906 0 0.57812-0.10938 0.79688-0.33203 0.44141-0.44141 0.44141-1.1562 0-1.5977zm-20.547 10.402v0.8125c0 0.042968-0.039062 0.082031-0.082031 0.082031h-2.2578c-0.046874 0-0.085937-0.039063-0.085937-0.082031v-0.8125h2.4297zm-16.254-39.879c0-8.293 6.7461-15.043 15.043-15.043 8.293 0 15.035 6.7461 15.035 15.043 0 8.293-6.7461 15.035-15.035 15.035-8.2891 0-15.043-6.7461-15.043-15.035zm13.824 21.113v-3.8594c0.40234 0.027343 0.80859 0.042968 1.2148 0.042968 0.41016 0 0.8125-0.015625 1.2109-0.042968v3.8594h-2.4297zm3.6523-14.359c0.57813 0.57812 1.3477 0.89844 2.1602 0.89844h0.003906c0.81641 0 1.582-0.32031 2.1523-0.89453 0.57812-0.57422 0.89844-1.3398 0.89844-2.1562s-0.31641-1.5898-0.89453-2.168l-2.4336-2.4336 2.4336-2.4336c0.57812-0.57813 0.89453-1.3477 0.89453-2.1641s-0.31641-1.5859-0.89453-2.1602c-0.57422-0.57812-1.3398-0.89844-2.1562-0.89844h-0.003906c-0.81641 0-1.5859 0.31641-2.1602 0.89844l-2.4336 2.4336-2.4336-2.4336c-1.1914-1.1914-3.1328-1.1914-4.3281 0.003906-1.1836 1.1914-1.1836 3.1289 0 4.3203l2.4375 2.4375-2.4375 2.4375c-1.1875 1.1953-1.1836 3.1328 0.003906 4.3203 1.1914 1.1914 3.1328 1.1914 4.3242 0l2.4336-2.4336 2.4336 2.4336zm-6.4648-1.5938c-0.3125 0.3125-0.82031 0.3125-1.1328 0-0.30859-0.30859-0.30859-0.81641 0-1.1289l3.2305-3.2305c0.21094-0.21094 0.33203-0.5 0.33203-0.79687 0-0.30078-0.11719-0.58594-0.33203-0.79688l-3.2305-3.2305c-0.3125-0.3125-0.3125-0.82422-0.003906-1.1367 0.3125-0.3125 0.82031-0.3125 1.1328 0l3.2305 3.2305c0.21094 0.21094 0.5 0.33203 0.79688 0.33203 0.30078 0 0.58594-0.11719 0.79688-0.33203l3.2305-3.2305c0.15234-0.15234 0.35156-0.23438 0.56641-0.23438 0.21094 0 0.41016 0.082031 0.5625 0.23438s0.23438 0.35156 0.23438 0.56641c0 0.21484-0.082031 0.41406-0.23438 0.56641l-3.2305 3.2305c-0.44141 0.44141-0.44141 1.1562 0 1.5977l3.2305 3.2305c0.15234 0.15234 0.23438 0.35156 0.23438 0.56641 0 0.21094-0.082031 0.41016-0.23828 0.5625-0.14844 0.14844-0.34766 0.23047-0.55859 0.23437-0.21484 0-0.41406-0.082031-0.56641-0.23437l-3.2305-3.2305c-0.21875-0.21875-0.50781-0.33203-0.79688-0.33203-0.28906 0-0.57812 0.10937-0.79688 0.33203l-3.2305 3.2305zm-20.598 7.4531c-0.82422-0.003906-1.5898 0.3125-2.1758 0.89453l-5.8086 5.8633-1.3984-1.3594c-1.2109-1.1758-3.1484-1.1484-4.3203 0.0625-1.1719 1.207-1.1445 3.1445 0.066406 4.3164l3.5547 3.4531c0.58984 0.57422 1.3594 0.86328 2.1289 0.86328 0.78125 0 1.5625-0.29687 2.1562-0.89062l7.9336-7.9844c0.57812-0.57031 0.89844-1.3359 0.90234-2.1484 0.003906-0.82031-0.3125-1.5898-0.88672-2.168-0.57031-0.57812-1.3359-0.89844-2.1484-0.90234zm0.53906 3.6211-7.9375 7.9883c-0.30469 0.30469-0.80078 0.30469-1.1133 0.003906l-3.5586-3.457c-0.15234-0.14844-0.23828-0.34766-0.24219-0.55859-0.003906-0.21094 0.078126-0.41406 0.22656-0.56641 0.15625-0.16016 0.36328-0.23828 0.57031-0.23828 0.19922 0 0.40234 0.074219 0.55859 0.22656l2.1992 2.1406c0.44531 0.43359 1.1523 0.42578 1.5898-0.015625l6.5898-6.6523c0.15234-0.15234 0.35547-0.23438 0.57031-0.23438 0.21094 0 0.40625 0.082031 0.55469 0.23438 0.15234 0.15234 0.23437 0.35547 0.23437 0.57031 0 0.21094-0.082031 0.40625-0.23828 0.55859z"/>
</svg>