<svg xmlns="http://www.w3.org/2000/svg" version="1.1" viewBox="-5.0 -10.0 110.0 135.0">
 <path d="m96.062 88.504-10.477-10.477c-0.875-0.875-2.1328-1.1328-3.2344-0.78125-0.42578-0.57031-0.47266-1.3281-0.097656-1.9609 1.7773-2.9844 2.7148-6.4102 2.7148-9.9023 0-8.1914-5.1055-15.215-12.301-18.055v-9.8359c4.7031-0.20703 9.1875-1.5195 13.039-3.8281 0.39844-0.23828 0.64062-0.66797 0.64062-1.1328v-9.4492l5.2812-1.4141v3.8516l-2.4844 2.4844c-0.24609 0.24609-0.38672 0.58594-0.38672 0.93359v8.6523c0 0.66016 0.39453 1.25 1.0039 1.5 0.20312 0.085937 0.41406 0.125 0.62109 0.125 0.42188 0 0.83594-0.16406 1.1484-0.47656l1.418-1.418 1.418 1.418c0.46484 0.46875 1.1602 0.60547 1.7695 0.35156s1.0039-0.84375 1.0039-1.5v-8.6523c0-0.35156-0.14062-0.6875-0.38672-0.93359l-2.4844-2.4844v-4.8555c0.42578-0.41406 0.6875-0.99219 0.6875-1.6133 0-1.0156-0.68359-1.9062-1.6641-2.1719l-20.469-5.4844c-0.054688-0.015625-0.10547-0.023437-0.16016-0.039062l0.007813-7.4258c0-0.73047-0.59375-1.3203-1.3203-1.3203l-67.613-0.003906c-0.35156 0-0.6875 0.14062-0.93359 0.38672-0.24609 0.24609-0.38672 0.58594-0.38672 0.93359v86.324c0 0.35156 0.14062 0.6875 0.38672 0.93359 0.24609 0.24609 0.58594 0.38672 0.93359 0.38672h67.613c0.73047 0 1.3203-0.59375 1.3203-1.3203v-6.8203c0.96875-0.37891 1.9062-0.83594 2.8047-1.3711 0.63281-0.375 1.3906-0.32812 1.9609 0.097656-0.097656 0.3125-0.15234 0.63672-0.15234 0.97656 0 0.85547 0.33203 1.6562 0.93359 2.2617l10.477 10.477c1.0156 1.0156 2.3516 1.5234 3.6836 1.5234 1.3359 0 2.668-0.50781 3.6836-1.5234 2.0312-2.0312 2.0312-5.3359 0-7.3672zm-12.355-56.738c-3.6602 2.0391-7.9141 3.1133-12.359 3.1133-4.4414 0-8.6992-1.0742-12.359-3.1133v-7.9766l10.879 2.9141c0.50391 0.13672 0.99219 0.20312 1.4805 0.20312 0.48828 0 0.97656-0.066406 1.4805-0.20312l10.879-2.9141zm10.797 3.3633-0.61328-0.61328c-0.25781-0.25781-0.59766-0.38672-0.93359-0.38672-0.33984 0-0.67578 0.12891-0.93359 0.38672l-0.61328 0.61328v-5.6445l1.5508-1.5508 1.5508 1.5508v5.6445zm-3.3164-16.082-19.043 5.1016c-0.55859 0.14844-1.0352 0.14844-1.5938 0l-19.043-5.1016 19.043-5.1016c0.55859-0.14844 1.0352-0.14844 1.5938 0zm-21.16 69.883h-64.969v-83.684h64.969v6.1055c-0.054688 0.011719-0.10547 0.023438-0.16016 0.039063l-20.469 5.4844c-0.98047 0.26172-1.6641 1.1562-1.6641 2.1719s0.68359 1.9102 1.6641 2.1719l6.9453 1.8594v9.4492c0 0.46484 0.24219 0.89453 0.64062 1.1328 3.8516 2.3125 8.3359 3.6211 13.039 3.8281v9.0078c-1.4297-0.33984-2.9219-0.51562-4.4531-0.51562-10.695 0-19.398 8.7031-19.398 19.398 0 10.695 8.7031 19.398 19.398 19.398 1.5078 0 3.0039-0.17578 4.4531-0.51953v4.6719zm4.0977-9.1406c-2.5781 1.5312-5.5352 2.3438-8.5508 2.3438-9.2383 0-16.754-7.5156-16.754-16.754 0-9.2383 7.5156-16.754 16.754-16.754s16.754 7.5156 16.754 16.754c0 3.0156-0.80859 5.9727-2.3438 8.5508-0.94141 1.5859-0.82031 3.4883 0.26562 4.9102l-1.2109 1.2109c-1.4258-1.0859-3.3281-1.207-4.9102-0.26562zm20.07 14.211c-1 1-2.6289 1-3.6289 0l-10.477-10.477c-0.14062-0.14063-0.16016-0.30469-0.16016-0.39063 0-0.085937 0.019531-0.25391 0.16016-0.39062l2.8477-2.8438c0.10938-0.10938 0.25-0.16016 0.39062-0.16016s0.28516 0.054688 0.39062 0.16016l10.477 10.477c1 1 1 2.6289 0 3.6289zm-28.621-43.773c-8.3555 0-15.152 6.7969-15.152 15.152 0 8.3555 6.7969 15.152 15.152 15.152s15.152-6.7969 15.152-15.152c0-8.3555-6.7969-15.152-15.152-15.152zm0 27.664c-6.8984 0-12.512-5.6133-12.512-12.512 0-6.8984 5.6133-12.512 12.512-12.512 6.8984 0 12.512 5.6133 12.512 12.512 0 6.8984-5.6133 12.512-12.512 12.512zm-23.156-6.1602c0 0.73047-0.59375 1.3203-1.3203 1.3203h-14.562c-0.73047 0-1.3203-0.59375-1.3203-1.3203 0-0.73047 0.59375-1.3203 1.3203-1.3203h14.562c0.73047 0 1.3203 0.59375 1.3203 1.3203zm3.9062 5.5234c0 0.73047-0.59375 1.3203-1.3203 1.3203h-18.469c-0.73047 0-1.3203-0.59375-1.3203-1.3203 0-0.73047 0.59375-1.3203 1.3203-1.3203h18.469c0.73047 0 1.3203 0.59375 1.3203 1.3203zm-32.453-43.469-0.86719 1.293c-0.55469 0.82422-0.44531 1.9375 0.25781 2.6406l2.9141 2.9141c0.70312 0.70313 1.8125 0.8125 2.6406 0.25781l1.293-0.86719 2.5586 1.0586 0.30078 1.5273c0.19141 0.97656 1.0547 1.6836 2.0508 1.6836h4.1211c0.99609 0 1.8555-0.70703 2.0508-1.6836l0.30078-1.5273 2.5586-1.0586 1.293 0.86719c0.82422 0.55469 1.9375 0.44531 2.6406-0.25781l2.9141-2.9141c0.70312-0.70312 0.8125-1.8125 0.25781-2.6406l-0.86719-1.293 1.0586-2.5586 1.5273-0.30078c0.97656-0.19141 1.6836-1.0547 1.6836-2.0508v-4.1211c0-0.99609-0.71094-1.8555-1.6836-2.0508l-1.5273-0.30078-1.0586-2.5586 0.86719-1.293c0.55469-0.82422 0.44531-1.9375-0.25781-2.6406l-2.9141-2.9141c-0.70312-0.70312-1.8125-0.8125-2.6406-0.25781l-1.293 0.86719-2.5586-1.0586-0.30078-1.5273c-0.19141-0.97656-1.0547-1.6836-2.0508-1.6836h-4.1211c-0.99609 0-1.8555 0.70703-2.0508 1.6836l-0.30078 1.5273-2.5586 1.0586-1.2969-0.86719c-0.82422-0.55469-1.9375-0.44531-2.6406 0.25781l-2.9141 2.9141c-0.70312 0.70312-0.8125 1.8125-0.25781 2.6406l0.86719 1.293-1.0586 2.5586-1.5273 0.30078c-0.97656 0.19141-1.6836 1.0547-1.6836 2.0508v4.1211c0 0.99609 0.71094 1.8555 1.6836 2.0508l1.5273 0.30078 1.0586 2.5586zm-1.6289-8.5742 1.7773-0.35156c0.43359-0.085937 0.79688-0.38281 0.96484-0.78906l1.6016-3.8672c0.16797-0.41016 0.12109-0.875-0.12109-1.2422l-1.0078-1.5039 2.2695-2.2695 1.5039 1.0078c0.36719 0.24609 0.83594 0.29297 1.2422 0.12109l3.8672-1.6016c0.41016-0.16797 0.70312-0.53125 0.78906-0.96484l0.35156-1.7773h3.207l0.35156 1.7773c0.085938 0.43359 0.38281 0.79688 0.78906 0.96484l3.8672 1.6016c0.40625 0.16797 0.875 0.12109 1.2422-0.12109l1.5039-1.0078 2.2695 2.2695-1.0078 1.5039c-0.24609 0.36719-0.29297 0.83203-0.12109 1.2422l1.6016 3.8672c0.16797 0.41016 0.53125 0.70313 0.96484 0.78906l1.7773 0.35156v3.207l-1.7773 0.35156c-0.43359 0.085938-0.79688 0.38281-0.96484 0.78906l-1.6016 3.8672c-0.16797 0.41016-0.12109 0.875 0.12109 1.2422l1.0078 1.5039-2.2695 2.2695-1.5039-1.0078c-0.36719-0.24609-0.83203-0.29297-1.2422-0.12109l-3.8672 1.6016c-0.41016 0.16797-0.70312 0.53125-0.78906 0.96484l-0.35156 1.7773h-3.207l-0.35156-1.7773c-0.085937-0.43359-0.38281-0.79688-0.78906-0.96484l-3.8672-1.6016c-0.41016-0.16797-0.875-0.12109-1.2422 0.12109l-1.5039 1.0078-2.2695-2.2695 1.0078-1.5039c0.24609-0.36719 0.29297-0.83203 0.12109-1.2422l-1.6016-3.8672c-0.16797-0.40625-0.53125-0.70312-0.96484-0.78906l-1.7773-0.35156zm14.836 11.211c5.2969 0 9.6094-4.3086 9.6094-9.6094 0-5.2969-4.3086-9.6094-9.6094-9.6094-5.2969 0-9.6094 4.3086-9.6094 9.6094 0 5.2969 4.3086 9.6094 9.6094 9.6094zm0-16.574c3.8398 0 6.9648 3.125 6.9648 6.9648s-3.125 6.9648-6.9648 6.9648-6.9648-3.125-6.9648-6.9648 3.125-6.9648 6.9648-6.9648zm-6.1875 49.305h-8.0234c-0.73047 0-1.3203 0.59375-1.3203 1.3203v8.0234c0 0.73047 0.59375 1.3203 1.3203 1.3203h8.0234c0.73047 0 1.3203-0.59375 1.3203-1.3203v-8.0234c0-0.73047-0.59375-1.3203-1.3203-1.3203zm-1.3203 8.0234h-5.3828v-5.3828h5.3828zm21.246-13.406h-17.434c-0.73047 0-1.3203-0.59375-1.3203-1.3203 0-0.73047 0.59375-1.3203 1.3203-1.3203h17.434c0.73047 0 1.3203 0.59375 1.3203 1.3203 0 0.73047-0.59375 1.3203-1.3203 1.3203zm-23.062-2.6445c0.73047 0 1.3203 0.59375 1.3203 1.3203 0 0.73047-0.59375 1.3203-1.3203 1.3203h-4.8906c-0.73047 0-1.3203-0.59375-1.3203-1.3203 0-0.73047 0.59375-1.3203 1.3203-1.3203zm-4.8906-12.465h32.832c0.73047 0 1.3203 0.59375 1.3203 1.3203 0 0.73047-0.59375 1.3203-1.3203 1.3203l-32.828 0.011719c-0.73047 0-1.3203-0.59375-1.3203-1.3203 0-0.73047 0.59375-1.3203 1.3203-1.3203zm29.91 8.875-29.906 0.007813c-0.73047 0-1.3203-0.59375-1.3203-1.3203 0-0.73047 0.59375-1.3203 1.3203-1.3203h29.91c0.73047 0 1.3203 0.59375 1.3203 1.3203 0 0.73047-0.59375 1.3203-1.3203 1.3203z"/>
</svg>